<mxfile host="app.diagrams.net" modified="2021-12-10T11:50:35.562Z" agent="5.0 (Windows NT 10.0; Win64; x64) AppleWebKit/537.36 (KHTML, like Gecko) Chrome/96.0.4664.93 Safari/537.36" etag="Mt2f1Wv4UURsYYRsmGO-" version="15.9.4" type="github">
  <diagram id="h5-6c95KHCAkGdze8uv-" name="Page-1">
    <mxGraphModel dx="1422" dy="734" grid="1" gridSize="10" guides="1" tooltips="1" connect="1" arrows="1" fold="1" page="1" pageScale="1" pageWidth="827" pageHeight="1169" math="0" shadow="0">
      <root>
        <mxCell id="0" />
        <mxCell id="1" parent="0" />
        <mxCell id="d_kUtybQaHPVFvwEdMjx-1" value="&lt;font style=&quot;font-size: 14px&quot;&gt;System running&lt;/font&gt;" style="text;html=1;align=center;verticalAlign=middle;resizable=0;points=[];autosize=1;" parent="1" vertex="1">
          <mxGeometry x="260" y="140" width="110" height="20" as="geometry" />
        </mxCell>
        <mxCell id="d_kUtybQaHPVFvwEdMjx-2" value="" style="endArrow=open;endFill=1;endSize=12;html=1;strokeWidth=3;" parent="1" edge="1">
          <mxGeometry width="160" relative="1" as="geometry">
            <mxPoint x="400" y="150" as="sourcePoint" />
            <mxPoint x="490" y="150" as="targetPoint" />
          </mxGeometry>
        </mxCell>
        <mxCell id="d_kUtybQaHPVFvwEdMjx-3" value="&lt;font style=&quot;font-size: 14px&quot;&gt;SystemLog : run&lt;/font&gt;" style="text;html=1;align=center;verticalAlign=middle;resizable=0;points=[];autosize=1;" parent="1" vertex="1">
          <mxGeometry x="525" y="140" width="120" height="20" as="geometry" />
        </mxCell>
        <mxCell id="d_kUtybQaHPVFvwEdMjx-4" value="4" style="ellipse;fillColor=#ffffff;strokeColor=#000000;fontSize=18;" parent="1" vertex="1">
          <mxGeometry x="451.5" y="90" width="30" height="30" as="geometry" />
        </mxCell>
        <mxCell id="d_kUtybQaHPVFvwEdMjx-65" value="&lt;div align=&quot;left&quot;&gt;r : road&lt;/div&gt;" style="html=1;align=left;verticalAlign=top;rounded=1;absoluteArcSize=1;arcSize=10;dashed=0;" parent="1" vertex="1">
          <mxGeometry x="284" y="240" width="90" height="40" as="geometry" />
        </mxCell>
        <mxCell id="d_kUtybQaHPVFvwEdMjx-66" value="" style="rounded=0;orthogonalLoop=1;jettySize=auto;html=1;endArrow=none;endFill=0;exitX=1;exitY=0.5;exitDx=0;exitDy=0;" parent="1" source="d_kUtybQaHPVFvwEdMjx-65" edge="1">
          <mxGeometry relative="1" as="geometry">
            <mxPoint x="509" y="375" as="sourcePoint" />
            <mxPoint x="394" y="200" as="targetPoint" />
            <Array as="points">
              <mxPoint x="394" y="260" />
              <mxPoint x="394" y="200" />
            </Array>
          </mxGeometry>
        </mxCell>
        <mxCell id="d_kUtybQaHPVFvwEdMjx-67" value="v1 :&amp;nbsp; vehicle" style="html=1;align=center;verticalAlign=top;rounded=1;absoluteArcSize=1;arcSize=10;dashed=0;" parent="1" vertex="1">
          <mxGeometry x="449" y="170" width="95" height="50" as="geometry" />
        </mxCell>
        <mxCell id="d_kUtybQaHPVFvwEdMjx-68" value="connV" style="html=1;" parent="1" vertex="1">
          <mxGeometry x="449" y="190" width="35" height="20" as="geometry" />
        </mxCell>
        <mxCell id="d_kUtybQaHPVFvwEdMjx-69" value="next" style="html=1;" parent="1" vertex="1">
          <mxGeometry x="514" y="190" width="30" height="20" as="geometry" />
        </mxCell>
        <mxCell id="d_kUtybQaHPVFvwEdMjx-70" value="connV" style="html=1;" parent="1" vertex="1">
          <mxGeometry x="449" y="310" width="50" height="20" as="geometry" />
        </mxCell>
        <mxCell id="d_kUtybQaHPVFvwEdMjx-71" value="&lt;div align=&quot;right&quot;&gt;&amp;nbsp; v2 : vehicle&lt;br&gt;&lt;/div&gt;" style="html=1;align=center;verticalAlign=top;rounded=1;absoluteArcSize=1;arcSize=10;dashed=0;" parent="1" vertex="1">
          <mxGeometry x="449" y="230" width="95" height="50" as="geometry" />
        </mxCell>
        <mxCell id="d_kUtybQaHPVFvwEdMjx-72" value="connV" style="html=1;" parent="1" vertex="1">
          <mxGeometry x="449" y="250" width="35" height="20" as="geometry" />
        </mxCell>
        <mxCell id="d_kUtybQaHPVFvwEdMjx-73" value="next" style="html=1;" parent="1" vertex="1">
          <mxGeometry x="514" y="250" width="30" height="20" as="geometry" />
        </mxCell>
        <mxCell id="d_kUtybQaHPVFvwEdMjx-74" value="" style="rounded=0;orthogonalLoop=1;jettySize=auto;html=1;endArrow=none;endFill=0;exitX=0;exitY=0.5;exitDx=0;exitDy=0;" parent="1" source="d_kUtybQaHPVFvwEdMjx-72" target="d_kUtybQaHPVFvwEdMjx-76" edge="1">
          <mxGeometry relative="1" as="geometry">
            <mxPoint x="429" y="245" as="sourcePoint" />
          </mxGeometry>
        </mxCell>
        <mxCell id="d_kUtybQaHPVFvwEdMjx-75" value="" style="rounded=0;orthogonalLoop=1;jettySize=auto;html=1;endArrow=halfCircle;endFill=0;endSize=6;strokeWidth=1;entryX=0.06;entryY=0.52;entryDx=0;entryDy=0;entryPerimeter=0;" parent="1" target="d_kUtybQaHPVFvwEdMjx-76" edge="1">
          <mxGeometry relative="1" as="geometry">
            <mxPoint x="389" y="259.8399999999999" as="sourcePoint" />
            <mxPoint x="409" y="259.84" as="targetPoint" />
          </mxGeometry>
        </mxCell>
        <mxCell id="d_kUtybQaHPVFvwEdMjx-76" value="" style="ellipse;whiteSpace=wrap;html=1;fontFamily=Helvetica;fontSize=12;fontColor=#000000;align=center;strokeColor=#000000;fillColor=#ffffff;points=[];aspect=fixed;resizable=0;" parent="1" vertex="1">
          <mxGeometry x="419" y="255" width="10" height="10" as="geometry" />
        </mxCell>
        <mxCell id="d_kUtybQaHPVFvwEdMjx-77" value="v3 : vehicle" style="html=1;align=center;verticalAlign=top;rounded=1;absoluteArcSize=1;arcSize=10;dashed=0;" parent="1" vertex="1">
          <mxGeometry x="449" y="300" width="95" height="50" as="geometry" />
        </mxCell>
        <mxCell id="d_kUtybQaHPVFvwEdMjx-78" value="connV" style="html=1;" parent="1" vertex="1">
          <mxGeometry x="449" y="320" width="35" height="20" as="geometry" />
        </mxCell>
        <mxCell id="d_kUtybQaHPVFvwEdMjx-79" value="docks" style="html=1;" parent="1" vertex="1">
          <mxGeometry x="514" y="320" width="30" height="20" as="geometry" />
        </mxCell>
        <mxCell id="d_kUtybQaHPVFvwEdMjx-80" value="" style="rounded=0;orthogonalLoop=1;jettySize=auto;html=1;endArrow=none;endFill=0;exitX=1;exitY=0.5;exitDx=0;exitDy=0;" parent="1" source="d_kUtybQaHPVFvwEdMjx-65" edge="1">
          <mxGeometry relative="1" as="geometry">
            <mxPoint x="372" y="379" as="sourcePoint" />
            <mxPoint x="394" y="331" as="targetPoint" />
            <Array as="points">
              <mxPoint x="394" y="260" />
              <mxPoint x="394" y="331" />
            </Array>
          </mxGeometry>
        </mxCell>
        <mxCell id="d_kUtybQaHPVFvwEdMjx-81" value="" style="ellipse;whiteSpace=wrap;html=1;fontFamily=Helvetica;fontSize=12;fontColor=#000000;align=center;strokeColor=#000000;fillColor=#ffffff;points=[];aspect=fixed;resizable=0;" parent="1" vertex="1">
          <mxGeometry x="419" y="325" width="10" height="10" as="geometry" />
        </mxCell>
        <mxCell id="d_kUtybQaHPVFvwEdMjx-82" value="" style="rounded=0;orthogonalLoop=1;jettySize=auto;html=1;endArrow=halfCircle;endFill=0;endSize=6;strokeWidth=1;" parent="1" target="d_kUtybQaHPVFvwEdMjx-81" edge="1">
          <mxGeometry relative="1" as="geometry">
            <mxPoint x="394" y="330" as="sourcePoint" />
            <mxPoint x="424" y="330" as="targetPoint" />
            <Array as="points" />
          </mxGeometry>
        </mxCell>
        <mxCell id="d_kUtybQaHPVFvwEdMjx-83" value="connV" style="html=1;" parent="1" vertex="1">
          <mxGeometry x="334" y="250" width="40" height="20" as="geometry" />
        </mxCell>
        <mxCell id="d_kUtybQaHPVFvwEdMjx-84" value="moving" style="html=1;" parent="1" vertex="1">
          <mxGeometry x="334" y="250" width="40" height="20" as="geometry" />
        </mxCell>
        <mxCell id="d_kUtybQaHPVFvwEdMjx-85" value="next" style="html=1;" parent="1" vertex="1">
          <mxGeometry x="514" y="320" width="30" height="20" as="geometry" />
        </mxCell>
        <mxCell id="d_kUtybQaHPVFvwEdMjx-86" value="" style="rounded=0;orthogonalLoop=1;jettySize=auto;html=1;endArrow=none;endFill=0;exitX=0;exitY=0.5;exitDx=0;exitDy=0;" parent="1" source="d_kUtybQaHPVFvwEdMjx-78" edge="1">
          <mxGeometry relative="1" as="geometry">
            <mxPoint x="459" y="269.99999999999994" as="sourcePoint" />
            <mxPoint x="429" y="330" as="targetPoint" />
          </mxGeometry>
        </mxCell>
        <mxCell id="d_kUtybQaHPVFvwEdMjx-87" value="" style="ellipse;whiteSpace=wrap;html=1;fontFamily=Helvetica;fontSize=12;fontColor=#000000;align=center;strokeColor=#000000;fillColor=#ffffff;points=[];aspect=fixed;resizable=0;" parent="1" vertex="1">
          <mxGeometry x="419" y="195" width="10" height="10" as="geometry" />
        </mxCell>
        <mxCell id="d_kUtybQaHPVFvwEdMjx-88" value="" style="rounded=0;orthogonalLoop=1;jettySize=auto;html=1;endArrow=halfCircle;endFill=0;endSize=6;strokeWidth=1;" parent="1" target="d_kUtybQaHPVFvwEdMjx-87" edge="1">
          <mxGeometry relative="1" as="geometry">
            <mxPoint x="394" y="200" as="sourcePoint" />
            <mxPoint x="424" y="190" as="targetPoint" />
            <Array as="points" />
          </mxGeometry>
        </mxCell>
        <mxCell id="d_kUtybQaHPVFvwEdMjx-89" value="" style="rounded=0;orthogonalLoop=1;jettySize=auto;html=1;endArrow=none;endFill=0;exitX=0;exitY=0.5;exitDx=0;exitDy=0;" parent="1" edge="1">
          <mxGeometry relative="1" as="geometry">
            <mxPoint x="449" y="200" as="sourcePoint" />
            <mxPoint x="429" y="200" as="targetPoint" />
          </mxGeometry>
        </mxCell>
        <mxCell id="-CQed-x_DPCxswSr0dIe-1" value="&lt;font style=&quot;font-size: 14px&quot;&gt;Test Events &lt;/font&gt;" style="text;html=1;align=center;verticalAlign=middle;resizable=0;points=[];autosize=1;fontSize=18;" vertex="1" parent="1">
          <mxGeometry x="170" y="394" width="90" height="30" as="geometry" />
        </mxCell>
        <mxCell id="-CQed-x_DPCxswSr0dIe-2" value="Reconfiguration&lt;br&gt;Path" style="text;html=1;align=center;verticalAlign=middle;resizable=0;points=[];autosize=1;fontSize=18;" vertex="1" parent="1">
          <mxGeometry x="140" y="500" width="140" height="50" as="geometry" />
        </mxCell>
        <mxCell id="-CQed-x_DPCxswSr0dIe-3" value="" style="endArrow=open;startArrow=circle;endFill=0;startFill=1;endSize=8;html=1;strokeWidth=4;fontSize=18;" edge="1" parent="1">
          <mxGeometry width="160" relative="1" as="geometry">
            <mxPoint x="294.3800000000001" y="484.6700000000001" as="sourcePoint" />
            <mxPoint x="383.76" y="484.5" as="targetPoint" />
          </mxGeometry>
        </mxCell>
        <mxCell id="-CQed-x_DPCxswSr0dIe-4" value="C1" style="text;html=1;align=center;verticalAlign=middle;resizable=0;points=[];autosize=1;fontSize=18;" vertex="1" parent="1">
          <mxGeometry x="280" y="500" width="40" height="30" as="geometry" />
        </mxCell>
        <mxCell id="-CQed-x_DPCxswSr0dIe-5" value="" style="endArrow=open;startArrow=circle;endFill=0;startFill=1;endSize=8;html=1;strokeWidth=4;fontSize=18;" edge="1" parent="1">
          <mxGeometry width="160" relative="1" as="geometry">
            <mxPoint x="498.3800000000001" y="484.6700000000001" as="sourcePoint" />
            <mxPoint x="618.3800000000001" y="484.5" as="targetPoint" />
          </mxGeometry>
        </mxCell>
        <mxCell id="-CQed-x_DPCxswSr0dIe-6" value="" style="endArrow=open;startArrow=circle;endFill=0;startFill=1;endSize=8;html=1;strokeWidth=4;fontSize=18;" edge="1" parent="1">
          <mxGeometry width="160" relative="1" as="geometry">
            <mxPoint x="620.25" y="484.6700000000001" as="sourcePoint" />
            <mxPoint x="715.2600000000002" y="485" as="targetPoint" />
          </mxGeometry>
        </mxCell>
        <mxCell id="-CQed-x_DPCxswSr0dIe-7" value="" style="endArrow=none;startArrow=circle;endFill=0;startFill=1;endSize=8;html=1;strokeWidth=4;fontSize=18;" edge="1" parent="1">
          <mxGeometry width="160" relative="1" as="geometry">
            <mxPoint x="718.3800000000001" y="484.84000000000015" as="sourcePoint" />
            <mxPoint x="738.3800000000001" y="484.5" as="targetPoint" />
          </mxGeometry>
        </mxCell>
        <mxCell id="-CQed-x_DPCxswSr0dIe-8" value="C4" style="text;html=1;align=center;verticalAlign=middle;resizable=0;points=[];autosize=1;fontSize=18;" vertex="1" parent="1">
          <mxGeometry x="615" y="500" width="40" height="30" as="geometry" />
        </mxCell>
        <mxCell id="-CQed-x_DPCxswSr0dIe-9" value="&lt;font style=&quot;font-size: 14px&quot;&gt;passRelay&lt;/font&gt;" style="text;html=1;align=center;verticalAlign=middle;resizable=0;points=[];autosize=1;fontSize=18;" vertex="1" parent="1">
          <mxGeometry x="425" y="450" width="80" height="30" as="geometry" />
        </mxCell>
        <mxCell id="-CQed-x_DPCxswSr0dIe-10" value="" style="endArrow=classic;html=1;strokeWidth=4;fontSize=18;" edge="1" parent="1">
          <mxGeometry width="50" height="50" relative="1" as="geometry">
            <mxPoint x="437.5" y="420" as="sourcePoint" />
            <mxPoint x="397.5" y="475" as="targetPoint" />
            <Array as="points">
              <mxPoint x="407.5" y="450" />
              <mxPoint x="428.5" y="450" />
            </Array>
          </mxGeometry>
        </mxCell>
        <mxCell id="-CQed-x_DPCxswSr0dIe-11" value="&lt;font style=&quot;font-size: 14px&quot;&gt;v2.join(v3)&lt;/font&gt;" style="text;html=1;align=center;verticalAlign=middle;resizable=0;points=[];autosize=1;fontSize=18;" vertex="1" parent="1">
          <mxGeometry x="304.38" y="394" width="80" height="30" as="geometry" />
        </mxCell>
        <mxCell id="-CQed-x_DPCxswSr0dIe-12" value="" style="endArrow=open;startArrow=circle;endFill=0;startFill=1;endSize=8;html=1;strokeWidth=4;fontSize=18;" edge="1" parent="1">
          <mxGeometry width="160" relative="1" as="geometry">
            <mxPoint x="385" y="484.6700000000001" as="sourcePoint" />
            <mxPoint x="504.3800000000001" y="485" as="targetPoint" />
          </mxGeometry>
        </mxCell>
        <mxCell id="-CQed-x_DPCxswSr0dIe-13" value="C2" style="text;html=1;align=center;verticalAlign=middle;resizable=0;points=[];autosize=1;fontSize=18;" vertex="1" parent="1">
          <mxGeometry x="385" y="500" width="40" height="30" as="geometry" />
        </mxCell>
        <mxCell id="-CQed-x_DPCxswSr0dIe-14" value="C3" style="text;html=1;align=center;verticalAlign=middle;resizable=0;points=[];autosize=1;fontSize=18;" vertex="1" parent="1">
          <mxGeometry x="498.38" y="500" width="40" height="30" as="geometry" />
        </mxCell>
        <mxCell id="-CQed-x_DPCxswSr0dIe-15" value="&lt;font style=&quot;font-size: 14px&quot;&gt;run&lt;/font&gt;" style="text;html=1;align=center;verticalAlign=middle;resizable=0;points=[];autosize=1;fontSize=18;" vertex="1" parent="1">
          <mxGeometry x="660.88" y="450" width="40" height="30" as="geometry" />
        </mxCell>
        <mxCell id="-CQed-x_DPCxswSr0dIe-16" value="4" style="ellipse;fillColor=#ffffff;strokeColor=#000000;fontSize=18;" vertex="1" parent="1">
          <mxGeometry x="644.37" y="359" width="30" height="30" as="geometry" />
        </mxCell>
        <mxCell id="-CQed-x_DPCxswSr0dIe-17" value="3" style="ellipse;fillColor=#ffffff;strokeColor=#000000;fontSize=18;" vertex="1" parent="1">
          <mxGeometry x="530.88" y="359" width="30" height="30" as="geometry" />
        </mxCell>
        <mxCell id="-CQed-x_DPCxswSr0dIe-18" value="2" style="ellipse;fillColor=#ffffff;strokeColor=#000000;fontSize=18;" vertex="1" parent="1">
          <mxGeometry x="420" y="359" width="30" height="30" as="geometry" />
        </mxCell>
        <mxCell id="-CQed-x_DPCxswSr0dIe-19" value="1" style="ellipse;fillColor=#ffffff;strokeColor=#000000;fontSize=18;" vertex="1" parent="1">
          <mxGeometry x="320" y="359" width="30" height="30" as="geometry" />
        </mxCell>
        <mxCell id="-CQed-x_DPCxswSr0dIe-20" value="&lt;font style=&quot;font-size: 14px&quot;&gt;acceptJoin&lt;/font&gt;" style="text;html=1;align=center;verticalAlign=middle;resizable=0;points=[];autosize=1;fontSize=18;" vertex="1" parent="1">
          <mxGeometry x="320" y="450" width="80" height="30" as="geometry" />
        </mxCell>
        <mxCell id="-CQed-x_DPCxswSr0dIe-21" value="&lt;font style=&quot;font-size: 14px&quot;&gt;acceptQuit&lt;/font&gt;" style="text;html=1;align=center;verticalAlign=middle;resizable=0;points=[];autosize=1;fontSize=18;" vertex="1" parent="1">
          <mxGeometry x="530.88" y="450" width="80" height="30" as="geometry" />
        </mxCell>
        <mxCell id="-CQed-x_DPCxswSr0dIe-22" value="&lt;font style=&quot;font-size: 14px&quot;&gt; δ&lt;/font&gt;" style="text;html=1;align=center;verticalAlign=middle;resizable=0;points=[];autosize=1;fontSize=18;" vertex="1" parent="1">
          <mxGeometry x="540" y="394" width="20" height="30" as="geometry" />
        </mxCell>
        <mxCell id="-CQed-x_DPCxswSr0dIe-23" value="&lt;font style=&quot;font-size: 14px&quot;&gt; δ&lt;/font&gt;" style="text;html=1;align=center;verticalAlign=middle;resizable=0;points=[];autosize=1;fontSize=18;" vertex="1" parent="1">
          <mxGeometry x="430" y="394" width="20" height="30" as="geometry" />
        </mxCell>
        <mxCell id="-CQed-x_DPCxswSr0dIe-24" value="&lt;font style=&quot;font-size: 14px&quot;&gt;Steps&lt;/font&gt;" style="text;html=1;align=center;verticalAlign=middle;resizable=0;points=[];autosize=1;strokeColor=none;" vertex="1" parent="1">
          <mxGeometry x="190" y="369" width="50" height="20" as="geometry" />
        </mxCell>
        <mxCell id="-CQed-x_DPCxswSr0dIe-25" value="&lt;font style=&quot;font-size: 14px&quot;&gt;Execution Trace&lt;/font&gt;" style="text;html=1;align=center;verticalAlign=middle;resizable=0;points=[];autosize=1;strokeColor=none;" vertex="1" parent="1">
          <mxGeometry x="150" y="475" width="120" height="20" as="geometry" />
        </mxCell>
        <mxCell id="-CQed-x_DPCxswSr0dIe-26" value="&lt;font style=&quot;font-size: 16px&quot;&gt;run&lt;/font&gt;" style="text;html=1;align=center;verticalAlign=middle;resizable=0;points=[];autosize=1;fontSize=18;" vertex="1" parent="1">
          <mxGeometry x="660.88" y="500" width="40" height="30" as="geometry" />
        </mxCell>
        <mxCell id="-CQed-x_DPCxswSr0dIe-27" value="&lt;font style=&quot;font-size: 14px&quot;&gt;acceptJoin&lt;/font&gt;" style="text;html=1;align=center;verticalAlign=middle;resizable=0;points=[];autosize=1;fontSize=18;" vertex="1" parent="1">
          <mxGeometry x="315" y="500" width="80" height="30" as="geometry" />
        </mxCell>
        <mxCell id="-CQed-x_DPCxswSr0dIe-28" value="&lt;font style=&quot;font-size: 14px&quot;&gt;acceptQuit&lt;/font&gt;" style="text;html=1;align=center;verticalAlign=middle;resizable=0;points=[];autosize=1;fontSize=18;" vertex="1" parent="1">
          <mxGeometry x="538.38" y="500" width="80" height="30" as="geometry" />
        </mxCell>
        <mxCell id="-CQed-x_DPCxswSr0dIe-29" value="" style="endArrow=classic;html=1;strokeWidth=4;fontSize=18;" edge="1" parent="1">
          <mxGeometry width="50" height="50" relative="1" as="geometry">
            <mxPoint x="550.8800000000001" y="420" as="sourcePoint" />
            <mxPoint x="510.8800000000001" y="475" as="targetPoint" />
            <Array as="points">
              <mxPoint x="520.88" y="450" />
              <mxPoint x="541.88" y="450" />
            </Array>
          </mxGeometry>
        </mxCell>
        <mxCell id="-CQed-x_DPCxswSr0dIe-30" value="" style="endArrow=classic;html=1;strokeWidth=4;fontSize=18;" edge="1" parent="1">
          <mxGeometry width="50" height="50" relative="1" as="geometry">
            <mxPoint x="665.2600000000002" y="420" as="sourcePoint" />
            <mxPoint x="625.2600000000002" y="475" as="targetPoint" />
            <Array as="points">
              <mxPoint x="635.26" y="450" />
              <mxPoint x="656.26" y="450" />
            </Array>
          </mxGeometry>
        </mxCell>
        <mxCell id="-CQed-x_DPCxswSr0dIe-31" value="" style="endArrow=classic;html=1;strokeWidth=4;fontSize=18;" edge="1" parent="1">
          <mxGeometry width="50" height="50" relative="1" as="geometry">
            <mxPoint x="345" y="420" as="sourcePoint" />
            <mxPoint x="305" y="475" as="targetPoint" />
            <Array as="points">
              <mxPoint x="315" y="450" />
              <mxPoint x="336" y="450" />
            </Array>
          </mxGeometry>
        </mxCell>
        <mxCell id="-CQed-x_DPCxswSr0dIe-32" value="&lt;font style=&quot;font-size: 14px&quot;&gt; δ&lt;/font&gt;" style="text;html=1;align=center;verticalAlign=middle;resizable=0;points=[];autosize=1;fontSize=18;" vertex="1" parent="1">
          <mxGeometry x="655" y="394" width="20" height="30" as="geometry" />
        </mxCell>
        <mxCell id="-CQed-x_DPCxswSr0dIe-33" value="&lt;font style=&quot;font-size: 14px&quot;&gt;passRelay&lt;/font&gt;" style="text;html=1;align=center;verticalAlign=middle;resizable=0;points=[];autosize=1;fontSize=18;" vertex="1" parent="1">
          <mxGeometry x="425" y="500" width="80" height="30" as="geometry" />
        </mxCell>
      </root>
    </mxGraphModel>
  </diagram>
</mxfile>
